# xmcd
#
# Track frame offsets:
#	150
#	19841
#	47339
#	68167
#	88663
#	110932
#	132909
#	157048
#	177730
#	196184
#
# Disc length: 3015 seconds
#
# Revision: 1
# Processed by: cddbd v1.5.2PL0 Copyright (c) Steve Scherf et al.
# Submitted via: EZCDAudioConverter 8.0.2.1
#
DISCID=8b0bc50a
DTITLE=Hương Lan - Mơ Lại Vầng Trăng
DYEAR=2012
DGENRE=Country
TTITLE0=Phải lòng lý ngựa ô
TTITLE1=Mơ Lại Vầng Trăng
TTITLE2=Ai ơi nhớ về miền Trung
TTITLE3=Con gái xứ dừa
TTITLE4=Lối mòn xe trâu
TTITLE5=Khi em về
TTITLE6=Không mẹ
TTITLE7=Nỗi buồn riêng mang
TTITLE8=Tại anh con sao sang sông
TTITLE9=Vầng trăng dạ cổ
EXTD=
EXTT0=
EXTT1=
EXTT2=
EXTT3=
EXTT4=
EXTT5=
EXTT6=
EXTT7=
EXTT8=
EXTT9=
PLAYORDER=
